<svg width="47" height="59" viewBox="0 0 47 59" fill="none" xmlns="http://www.w3.org/2000/svg">
<g id="&#240;&#159;&#166;&#134; icon &#34;book add&#34;">
<path id="Vector" d="M7.89573 46.6105H41.7415H44.3474H46.9533V43.7588V38.0553V6.68594C46.9533 3.54045 44.6158 0.982422 41.7415 0.982422H7.86446C4.72172 0.982422 0.0466919 3.26098 0.0466919 9.53769V18.093V35.2035V43.7588V49.4623C0.0466919 55.739 4.72172 58.0176 7.86446 58.0176H46.9533V52.3141H7.89573C6.6918 52.2798 5.25854 51.7608 5.25854 49.4623C5.25854 47.1638 6.6918 46.6448 7.89573 46.6105ZM13.0763 20.9447H20.8941V12.3895H26.1059V20.9447H33.9237V26.6482H26.1059V35.2035H20.8941V26.6482H13.0763V20.9447Z" fill="#4D77FF"/>
</g>
</svg>
