<svg width="199" height="55" viewBox="0 0 199 55" fill="none" xmlns="http://www.w3.org/2000/svg">
<rect width="199" height="55" rx="10" fill="#292929"/>
<path d="M37.4521 26.7392L43.2155 20.985L24.5998 10.5391C23.3661 9.87358 22.2103 9.78018 21.1967 10.508L37.4521 26.7392ZM44.1978 33.4761L50.1893 30.1115C51.3588 29.4577 52 28.5314 52 27.5039C52 26.4784 51.3588 25.5502 50.1913 24.8963L44.767 21.8548L38.6605 27.9496L44.1978 33.4761ZM20.1949 11.9227C20.0702 12.306 20 12.7341 20 13.2031V41.8184C20 42.5598 20.1637 43.198 20.46 43.7059L36.2417 27.9476L20.1949 11.9227ZM37.4521 29.1541L21.7581 44.8249C22.0582 44.9397 22.3818 45 22.7229 45C23.331 45 23.9644 44.821 24.6096 44.4629L42.6483 34.3498L37.4521 29.1541Z" fill="white"/>
<path d="M61.7 20.5V13.3H63.995C64.055 13.3 64.1733 13.3017 64.35 13.305C64.53 13.3083 64.7033 13.32 64.87 13.34C65.44 13.4133 65.9217 13.6167 66.315 13.95C66.7117 14.28 67.0117 14.7017 67.215 15.215C67.4183 15.7283 67.52 16.29 67.52 16.9C67.52 17.51 67.4183 18.0717 67.215 18.585C67.0117 19.0983 66.7117 19.5217 66.315 19.855C65.9217 20.185 65.44 20.3867 64.87 20.46C64.7067 20.48 64.535 20.4917 64.355 20.495C64.175 20.4983 64.055 20.5 63.995 20.5H61.7ZM62.925 19.365H63.995C64.095 19.365 64.2217 19.3617 64.375 19.355C64.5317 19.3483 64.67 19.3333 64.79 19.31C65.13 19.2467 65.4067 19.095 65.62 18.855C65.8333 18.615 65.99 18.3233 66.09 17.98C66.1933 17.6367 66.245 17.2767 66.245 16.9C66.245 16.51 66.1933 16.1433 66.09 15.8C65.9867 15.4567 65.8267 15.1683 65.61 14.935C65.3967 14.7017 65.1233 14.5533 64.79 14.49C64.67 14.4633 64.5317 14.4483 64.375 14.445C64.2217 14.4383 64.095 14.435 63.995 14.435H62.925V19.365ZM71.387 20.65C70.847 20.65 70.3753 20.5283 69.972 20.285C69.5686 20.0417 69.2553 19.7067 69.032 19.28C68.812 18.85 68.702 18.3567 68.702 17.8C68.702 17.2333 68.8153 16.7367 69.042 16.31C69.2686 15.8833 69.5836 15.55 69.987 15.31C70.3903 15.07 70.857 14.95 71.387 14.95C71.9303 14.95 72.4036 15.0717 72.807 15.315C73.2103 15.5583 73.5236 15.895 73.747 16.325C73.9703 16.7517 74.082 17.2433 74.082 17.8C74.082 18.36 73.9686 18.855 73.742 19.285C73.5186 19.7117 73.2053 20.0467 72.802 20.29C72.3986 20.53 71.927 20.65 71.387 20.65ZM71.387 19.52C71.867 19.52 72.2236 19.36 72.457 19.04C72.6903 18.72 72.807 18.3067 72.807 17.8C72.807 17.2767 72.6886 16.86 72.452 16.55C72.2153 16.2367 71.8603 16.08 71.387 16.08C71.0636 16.08 70.797 16.1533 70.587 16.3C70.3803 16.4433 70.227 16.645 70.127 16.905C70.027 17.1617 69.977 17.46 69.977 17.8C69.977 18.3233 70.0953 18.7417 70.332 19.055C70.572 19.365 70.9236 19.52 71.387 19.52ZM76.4383 20.5L74.7883 15.09L75.9683 15.1L77.0233 18.565L78.0933 15.1H79.1083L80.1733 18.565L81.2333 15.1H82.4133L80.7633 20.5H79.8233L78.5983 16.785L77.3783 20.5H76.4383ZM87.3506 20.5V17.9C87.3506 17.73 87.339 17.5417 87.3156 17.335C87.2923 17.1283 87.2373 16.93 87.1506 16.74C87.0673 16.5467 86.9406 16.3883 86.7706 16.265C86.604 16.1417 86.3773 16.08 86.0906 16.08C85.9373 16.08 85.7856 16.105 85.6356 16.155C85.4856 16.205 85.349 16.2917 85.2256 16.415C85.1056 16.535 85.009 16.7017 84.9356 16.915C84.8623 17.125 84.8256 17.395 84.8256 17.725L84.1106 17.42C84.1106 16.96 84.199 16.5433 84.3756 16.17C84.5556 15.7967 84.819 15.5 85.1656 15.28C85.5123 15.0567 85.939 14.945 86.4456 14.945C86.8456 14.945 87.1756 15.0117 87.4356 15.145C87.6956 15.2783 87.9023 15.4483 88.0556 15.655C88.209 15.8617 88.3223 16.0817 88.3956 16.315C88.469 16.5483 88.5156 16.77 88.5356 16.98C88.559 17.1867 88.5706 17.355 88.5706 17.485V20.5H87.3506ZM83.6056 20.5V15.1H84.6806V16.775H84.8256V20.5H83.6056ZM90.2754 20.5V13.15H91.4804V20.5H90.2754ZM95.6631 20.65C95.1231 20.65 94.6515 20.5283 94.2481 20.285C93.8448 20.0417 93.5315 19.7067 93.3081 19.28C93.0881 18.85 92.9781 18.3567 92.9781 17.8C92.9781 17.2333 93.0915 16.7367 93.3181 16.31C93.5448 15.8833 93.8598 15.55 94.2631 15.31C94.6665 15.07 95.1331 14.95 95.6631 14.95C96.2065 14.95 96.6798 15.0717 97.0831 15.315C97.4865 15.5583 97.7998 15.895 98.0231 16.325C98.2465 16.7517 98.3581 17.2433 98.3581 17.8C98.3581 18.36 98.2448 18.855 98.0181 19.285C97.7948 19.7117 97.4815 20.0467 97.0781 20.29C96.6748 20.53 96.2031 20.65 95.6631 20.65ZM95.6631 19.52C96.1431 19.52 96.4998 19.36 96.7331 19.04C96.9665 18.72 97.0831 18.3067 97.0831 17.8C97.0831 17.2767 96.9648 16.86 96.7281 16.55C96.4915 16.2367 96.1365 16.08 95.6631 16.08C95.3398 16.08 95.0731 16.1533 94.8631 16.3C94.6565 16.4433 94.5031 16.645 94.4031 16.905C94.3031 17.1617 94.2531 17.46 94.2531 17.8C94.2531 18.3233 94.3715 18.7417 94.6081 19.055C94.8481 19.365 95.1998 19.52 95.6631 19.52ZM101.27 20.65C100.88 20.65 100.55 20.5767 100.28 20.43C100.01 20.28 99.8048 20.0817 99.6648 19.835C99.5281 19.5883 99.4598 19.3167 99.4598 19.02C99.4598 18.76 99.5031 18.5267 99.5898 18.32C99.6764 18.11 99.8098 17.93 99.9898 17.78C100.17 17.6267 100.403 17.5017 100.69 17.405C100.906 17.335 101.16 17.2717 101.45 17.215C101.743 17.1583 102.06 17.1067 102.4 17.06C102.743 17.01 103.101 16.9567 103.475 16.9L103.045 17.145C103.048 16.7717 102.965 16.4967 102.795 16.32C102.625 16.1433 102.338 16.055 101.935 16.055C101.691 16.055 101.456 16.1117 101.23 16.225C101.003 16.3383 100.845 16.5333 100.755 16.81L99.6548 16.465C99.7881 16.0083 100.041 15.6417 100.415 15.365C100.791 15.0883 101.298 14.95 101.935 14.95C102.415 14.95 102.836 15.0283 103.2 15.185C103.566 15.3417 103.838 15.5983 104.015 15.955C104.111 16.145 104.17 16.34 104.19 16.54C104.21 16.7367 104.22 16.9517 104.22 17.185V20.5H103.165V19.33L103.34 19.52C103.096 19.91 102.811 20.1967 102.485 20.38C102.161 20.56 101.756 20.65 101.27 20.65ZM101.51 19.69C101.783 19.69 102.016 19.6417 102.21 19.545C102.403 19.4483 102.556 19.33 102.67 19.19C102.786 19.05 102.865 18.9183 102.905 18.795C102.968 18.6417 103.003 18.4667 103.01 18.27C103.02 18.07 103.025 17.9083 103.025 17.785L103.395 17.895C103.031 17.9517 102.72 18.0017 102.46 18.045C102.2 18.0883 101.976 18.13 101.79 18.17C101.603 18.2067 101.438 18.2483 101.295 18.295C101.155 18.345 101.036 18.4033 100.94 18.47C100.843 18.5367 100.768 18.6133 100.715 18.7C100.665 18.7867 100.64 18.8883 100.64 19.005C100.64 19.1383 100.673 19.2567 100.74 19.36C100.806 19.46 100.903 19.54 101.03 19.6C101.16 19.66 101.32 19.69 101.51 19.69ZM107.986 20.65C107.49 20.65 107.056 20.525 106.686 20.275C106.316 20.025 106.03 19.685 105.826 19.255C105.623 18.825 105.521 18.34 105.521 17.8C105.521 17.2533 105.623 16.7667 105.826 16.34C106.033 15.91 106.325 15.5717 106.701 15.325C107.078 15.075 107.521 14.95 108.031 14.95C108.545 14.95 108.975 15.075 109.321 15.325C109.671 15.5717 109.936 15.91 110.116 16.34C110.296 16.77 110.386 17.2567 110.386 17.8C110.386 18.3367 110.296 18.8217 110.116 19.255C109.936 19.685 109.668 20.025 109.311 20.275C108.955 20.525 108.513 20.65 107.986 20.65ZM108.171 19.57C108.495 19.57 108.755 19.4967 108.951 19.35C109.151 19.2 109.296 18.9917 109.386 18.725C109.48 18.4583 109.526 18.15 109.526 17.8C109.526 17.4467 109.48 17.1383 109.386 16.875C109.296 16.6083 109.155 16.4017 108.961 16.255C108.768 16.105 108.518 16.03 108.211 16.03C107.888 16.03 107.621 16.11 107.411 16.27C107.201 16.4267 107.046 16.64 106.946 16.91C106.846 17.1767 106.796 17.4733 106.796 17.8C106.796 18.13 106.845 18.43 106.941 18.7C107.041 18.9667 107.193 19.1783 107.396 19.335C107.6 19.4917 107.858 19.57 108.171 19.57ZM109.526 20.5V16.71H109.376V13.3H110.591V20.5H109.526ZM116.98 20.65C116.44 20.65 115.969 20.5283 115.565 20.285C115.162 20.0417 114.849 19.7067 114.625 19.28C114.405 18.85 114.295 18.3567 114.295 17.8C114.295 17.2333 114.409 16.7367 114.635 16.31C114.862 15.8833 115.177 15.55 115.58 15.31C115.984 15.07 116.45 14.95 116.98 14.95C117.524 14.95 117.997 15.0717 118.4 15.315C118.804 15.5583 119.117 15.895 119.34 16.325C119.564 16.7517 119.675 17.2433 119.675 17.8C119.675 18.36 119.562 18.855 119.335 19.285C119.112 19.7117 118.799 20.0467 118.395 20.29C117.992 20.53 117.52 20.65 116.98 20.65ZM116.98 19.52C117.46 19.52 117.817 19.36 118.05 19.04C118.284 18.72 118.4 18.3067 118.4 17.8C118.4 17.2767 118.282 16.86 118.045 16.55C117.809 16.2367 117.454 16.08 116.98 16.08C116.657 16.08 116.39 16.1533 116.18 16.3C115.974 16.4433 115.82 16.645 115.72 16.905C115.62 17.1617 115.57 17.46 115.57 17.8C115.57 18.3233 115.689 18.7417 115.925 19.055C116.165 19.365 116.517 19.52 116.98 19.52ZM124.812 20.5V17.9C124.812 17.73 124.8 17.5417 124.777 17.335C124.754 17.1283 124.699 16.93 124.612 16.74C124.529 16.5467 124.402 16.3883 124.232 16.265C124.065 16.1417 123.839 16.08 123.552 16.08C123.399 16.08 123.247 16.105 123.097 16.155C122.947 16.205 122.81 16.2917 122.687 16.415C122.567 16.535 122.47 16.7017 122.397 16.915C122.324 17.125 122.287 17.395 122.287 17.725L121.572 17.42C121.572 16.96 121.66 16.5433 121.837 16.17C122.017 15.7967 122.28 15.5 122.627 15.28C122.974 15.0567 123.4 14.945 123.907 14.945C124.307 14.945 124.637 15.0117 124.897 15.145C125.157 15.2783 125.364 15.4483 125.517 15.655C125.67 15.8617 125.784 16.0817 125.857 16.315C125.93 16.5483 125.977 16.77 125.997 16.98C126.02 17.1867 126.032 17.355 126.032 17.485V20.5H124.812ZM121.067 20.5V15.1H122.142V16.775H122.287V20.5H121.067ZM133.104 20.5C132.747 20.5667 132.397 20.595 132.054 20.585C131.714 20.5783 131.409 20.5167 131.139 20.4C130.869 20.28 130.664 20.0917 130.524 19.835C130.4 19.6017 130.335 19.3633 130.329 19.12C130.322 18.8767 130.319 18.6017 130.319 18.295V13.6H131.519V18.225C131.519 18.4417 131.52 18.6317 131.524 18.795C131.53 18.9583 131.565 19.0917 131.629 19.195C131.749 19.395 131.94 19.5067 132.204 19.53C132.467 19.5533 132.767 19.54 133.104 19.49V20.5ZM129.339 16.045V15.1H133.104V16.045H129.339ZM138.3 20.5V17.9C138.3 17.73 138.288 17.5417 138.265 17.335C138.242 17.1283 138.187 16.93 138.1 16.74C138.017 16.5467 137.89 16.3883 137.72 16.265C137.553 16.1417 137.327 16.08 137.04 16.08C136.887 16.08 136.735 16.105 136.585 16.155C136.435 16.205 136.298 16.2917 136.175 16.415C136.055 16.535 135.958 16.7017 135.885 16.915C135.812 17.125 135.775 17.395 135.775 17.725L135.06 17.42C135.06 16.96 135.148 16.5433 135.325 16.17C135.505 15.7967 135.768 15.5 136.115 15.28C136.462 15.0567 136.888 14.945 137.395 14.945C137.795 14.945 138.125 15.0117 138.385 15.145C138.645 15.2783 138.852 15.4483 139.005 15.655C139.158 15.8617 139.272 16.0817 139.345 16.315C139.418 16.5483 139.465 16.77 139.485 16.98C139.508 17.1867 139.52 17.355 139.52 17.485V20.5H138.3ZM134.555 20.5V13.3H135.63V17.09H135.775V20.5H134.555ZM143.58 20.65C143.033 20.65 142.553 20.5317 142.14 20.295C141.726 20.0583 141.403 19.73 141.17 19.31C140.94 18.89 140.825 18.4067 140.825 17.86C140.825 17.27 140.938 16.7583 141.165 16.325C141.391 15.8883 141.706 15.55 142.11 15.31C142.513 15.07 142.98 14.95 143.51 14.95C144.07 14.95 144.545 15.0817 144.935 15.345C145.328 15.605 145.62 15.9733 145.81 16.45C146 16.9267 146.071 17.4883 146.025 18.135H144.83V17.695C144.826 17.1083 144.723 16.68 144.52 16.41C144.316 16.14 143.996 16.005 143.56 16.005C143.066 16.005 142.7 16.1583 142.46 16.465C142.22 16.7683 142.1 17.2133 142.1 17.8C142.1 18.3467 142.22 18.77 142.46 19.07C142.7 19.37 143.05 19.52 143.51 19.52C143.806 19.52 144.061 19.455 144.275 19.325C144.491 19.1917 144.658 19 144.775 18.75L145.965 19.11C145.758 19.5967 145.438 19.975 145.005 20.245C144.575 20.515 144.1 20.65 143.58 20.65ZM141.72 18.135V17.225H145.435V18.135H141.72Z" fill="white"/>
<path d="M68.4 41.8C67.4933 41.8 66.63 41.64 65.81 41.32C64.99 40.9933 64.2633 40.5133 63.63 39.88C63.0033 39.2467 62.5067 38.4633 62.14 37.53C61.78 36.5967 61.6 35.52 61.6 34.3C61.6 32.7067 61.9033 31.3533 62.51 30.24C63.1233 29.12 63.9433 28.2667 64.97 27.68C66.0033 27.0933 67.1467 26.8 68.4 26.8C70.2533 26.8 71.71 27.23 72.77 28.09C73.83 28.95 74.54 30.1667 74.9 31.74L72.12 32.14C71.86 31.3 71.4333 30.63 70.84 30.13C70.2533 29.6233 69.5 29.3667 68.58 29.36C67.6667 29.3467 66.9067 29.5433 66.3 29.95C65.6933 30.3567 65.2367 30.9333 64.93 31.68C64.63 32.4267 64.48 33.3 64.48 34.3C64.48 35.3 64.63 36.1667 64.93 36.9C65.2367 37.6333 65.6933 38.2033 66.3 38.61C66.9067 39.0167 67.6667 39.2267 68.58 39.24C69.2 39.2533 69.76 39.1467 70.26 38.92C70.7667 38.6933 71.1933 38.3367 71.54 37.85C71.8867 37.3633 72.1333 36.74 72.28 35.98H70V33.88H75.18C75.1933 33.9667 75.2033 34.12 75.21 34.34C75.2167 34.56 75.22 34.6867 75.22 34.72C75.22 36.1 74.94 37.3233 74.38 38.39C73.82 39.4567 73.03 40.2933 72.01 40.9C70.99 41.5 69.7867 41.8 68.4 41.8ZM82.2842 41.8C81.1976 41.8 80.2442 41.5567 79.4242 41.07C78.6042 40.5833 77.9642 39.9133 77.5042 39.06C77.0509 38.2 76.8242 37.2133 76.8242 36.1C76.8242 34.9733 77.0576 33.9833 77.5242 33.13C77.9909 32.27 78.6342 31.6 79.4542 31.12C80.2742 30.64 81.2176 30.4 82.2842 30.4C83.3709 30.4 84.3242 30.6433 85.1442 31.13C85.9709 31.6167 86.6142 32.29 87.0742 33.15C87.5342 34.0033 87.7642 34.9867 87.7642 36.1C87.7642 37.22 87.5309 38.21 87.0642 39.07C86.6042 39.9233 85.9609 40.5933 85.1342 41.08C84.3142 41.56 83.3642 41.8 82.2842 41.8ZM82.2842 39.26C83.1576 39.26 83.8076 38.9667 84.2342 38.38C84.6676 37.7867 84.8842 37.0267 84.8842 36.1C84.8842 35.14 84.6642 34.3733 84.2242 33.8C83.7909 33.2267 83.1442 32.94 82.2842 32.94C81.6909 32.94 81.2042 33.0733 80.8242 33.34C80.4442 33.6067 80.1609 33.9767 79.9742 34.45C79.7942 34.9233 79.7042 35.4733 79.7042 36.1C79.7042 37.0667 79.9209 37.8367 80.3542 38.41C80.7942 38.9767 81.4376 39.26 82.2842 39.26ZM95.0233 41.8C93.9366 41.8 92.9833 41.5567 92.1633 41.07C91.3433 40.5833 90.7033 39.9133 90.2433 39.06C89.7899 38.2 89.5633 37.2133 89.5633 36.1C89.5633 34.9733 89.7966 33.9833 90.2633 33.13C90.7299 32.27 91.3733 31.6 92.1933 31.12C93.0133 30.64 93.9566 30.4 95.0233 30.4C96.1099 30.4 97.0633 30.6433 97.8833 31.13C98.7099 31.6167 99.3533 32.29 99.8133 33.15C100.273 34.0033 100.503 34.9867 100.503 36.1C100.503 37.22 100.27 38.21 99.8033 39.07C99.3433 39.9233 98.6999 40.5933 97.8733 41.08C97.0533 41.56 96.1033 41.8 95.0233 41.8ZM95.0233 39.26C95.8966 39.26 96.5466 38.9667 96.9733 38.38C97.4066 37.7867 97.6233 37.0267 97.6233 36.1C97.6233 35.14 97.4033 34.3733 96.9633 33.8C96.5299 33.2267 95.8833 32.94 95.0233 32.94C94.4299 32.94 93.9433 33.0733 93.5633 33.34C93.1833 33.6067 92.8999 33.9767 92.7133 34.45C92.5333 34.9233 92.4433 35.4733 92.4433 36.1C92.4433 37.0667 92.6599 37.8367 93.0933 38.41C93.5333 38.9767 94.1766 39.26 95.0233 39.26ZM107.522 46.6C106.909 46.6 106.326 46.5 105.772 46.3C105.219 46.1067 104.722 45.8333 104.282 45.48C103.849 45.1333 103.496 44.7267 103.222 44.26L105.742 43.04C105.916 43.36 106.162 43.6033 106.482 43.77C106.809 43.9367 107.162 44.02 107.542 44.02C107.949 44.02 108.332 43.95 108.692 43.81C109.052 43.6767 109.339 43.4733 109.552 43.2C109.772 42.9333 109.876 42.6 109.862 42.2V39.06H110.202V30.7H112.582V42.24C112.582 42.5067 112.569 42.7567 112.542 42.99C112.522 43.23 112.482 43.4667 112.422 43.7C112.249 44.36 111.926 44.9033 111.452 45.33C110.986 45.7567 110.412 46.0733 109.732 46.28C109.052 46.4933 108.316 46.6 107.522 46.6ZM107.282 41.8C106.289 41.8 105.419 41.55 104.672 41.05C103.926 40.55 103.342 39.87 102.922 39.01C102.509 38.15 102.302 37.18 102.302 36.1C102.302 35 102.512 34.0233 102.932 33.17C103.359 32.31 103.956 31.6333 104.722 31.14C105.489 30.6467 106.389 30.4 107.422 30.4C108.449 30.4 109.312 30.65 110.012 31.15C110.712 31.65 111.242 32.33 111.602 33.19C111.962 34.05 112.142 35.02 112.142 36.1C112.142 37.18 111.959 38.15 111.592 39.01C111.232 39.87 110.692 40.55 109.972 41.05C109.252 41.55 108.356 41.8 107.282 41.8ZM107.722 39.38C108.329 39.38 108.812 39.2433 109.172 38.97C109.539 38.6967 109.802 38.3133 109.962 37.82C110.122 37.3267 110.202 36.7533 110.202 36.1C110.202 35.4467 110.122 34.8733 109.962 34.38C109.802 33.8867 109.546 33.5033 109.192 33.23C108.846 32.9567 108.389 32.82 107.822 32.82C107.216 32.82 106.716 32.97 106.322 33.27C105.936 33.5633 105.649 33.96 105.462 34.46C105.276 34.9533 105.182 35.5 105.182 36.1C105.182 36.7067 105.272 37.26 105.452 37.76C105.632 38.2533 105.909 38.6467 106.282 38.94C106.656 39.2333 107.136 39.38 107.722 39.38ZM115.783 41.5V26.8H118.503V41.5H115.783ZM126.721 41.8C125.614 41.8 124.637 41.5633 123.791 41.09C122.951 40.61 122.291 39.9533 121.811 39.12C121.337 38.28 121.101 37.32 121.101 36.24C121.101 35.06 121.334 34.0333 121.801 33.16C122.267 32.2867 122.911 31.61 123.731 31.13C124.551 30.6433 125.494 30.4 126.561 30.4C127.694 30.4 128.657 30.6667 129.451 31.2C130.244 31.7333 130.831 32.4833 131.211 33.45C131.591 34.4167 131.724 35.5533 131.611 36.86H128.921V35.86C128.921 34.76 128.744 33.97 128.391 33.49C128.044 33.0033 127.474 32.76 126.681 32.76C125.754 32.76 125.071 33.0433 124.631 33.61C124.197 34.17 123.981 35 123.981 36.1C123.981 37.1067 124.197 37.8867 124.631 38.44C125.071 38.9867 125.714 39.26 126.561 39.26C127.094 39.26 127.551 39.1433 127.931 38.91C128.311 38.6767 128.601 38.34 128.801 37.9L131.521 38.68C131.114 39.6667 130.471 40.4333 129.591 40.98C128.717 41.5267 127.761 41.8 126.721 41.8ZM123.141 36.86V34.84H130.301V36.86H123.141ZM138.273 41.5V27.1H144.353C144.493 27.1 144.679 27.1067 144.913 27.12C145.153 27.1267 145.366 27.1467 145.553 27.18C146.413 27.3133 147.116 27.5967 147.663 28.03C148.216 28.4633 148.623 29.01 148.883 29.67C149.143 30.3233 149.273 31.0533 149.273 31.86C149.273 32.6667 149.139 33.4 148.873 34.06C148.613 34.7133 148.206 35.2567 147.653 35.69C147.106 36.1233 146.406 36.4067 145.553 36.54C145.366 36.5667 145.153 36.5867 144.913 36.6C144.673 36.6133 144.486 36.62 144.353 36.62H140.993V41.5H138.273ZM140.993 34.08H144.233C144.373 34.08 144.526 34.0733 144.693 34.06C144.859 34.0467 145.013 34.02 145.153 33.98C145.519 33.88 145.803 33.7133 146.003 33.48C146.203 33.24 146.339 32.9767 146.413 32.69C146.493 32.3967 146.533 32.12 146.533 31.86C146.533 31.6 146.493 31.3267 146.413 31.04C146.339 30.7467 146.203 30.4833 146.003 30.25C145.803 30.01 145.519 29.84 145.153 29.74C145.013 29.7 144.859 29.6733 144.693 29.66C144.526 29.6467 144.373 29.64 144.233 29.64H140.993V34.08ZM151.68 41.5V26.8H154.4V41.5H151.68ZM160.598 41.8C159.825 41.8 159.168 41.6533 158.628 41.36C158.095 41.06 157.688 40.6633 157.408 40.17C157.135 39.67 156.998 39.12 156.998 38.52C156.998 38.02 157.075 37.5633 157.228 37.15C157.382 36.7367 157.628 36.3733 157.968 36.06C158.315 35.74 158.778 35.4733 159.358 35.26C159.758 35.1133 160.235 34.9833 160.788 34.87C161.342 34.7567 161.968 34.65 162.668 34.55C163.368 34.4433 164.138 34.3267 164.978 34.2L163.998 34.74C163.998 34.1 163.845 33.63 163.538 33.33C163.232 33.03 162.718 32.88 161.998 32.88C161.598 32.88 161.182 32.9767 160.748 33.17C160.315 33.3633 160.012 33.7067 159.838 34.2L157.378 33.42C157.652 32.5267 158.165 31.8 158.918 31.24C159.672 30.68 160.698 30.4 161.998 30.4C162.952 30.4 163.798 30.5467 164.538 30.84C165.278 31.1333 165.838 31.64 166.218 32.36C166.432 32.76 166.558 33.16 166.598 33.56C166.638 33.96 166.658 34.4067 166.658 34.9V41.5H164.278V39.28L164.618 39.74C164.092 40.4667 163.522 40.9933 162.908 41.32C162.302 41.64 161.532 41.8 160.598 41.8ZM161.178 39.66C161.678 39.66 162.098 39.5733 162.438 39.4C162.785 39.22 163.058 39.0167 163.258 38.79C163.465 38.5633 163.605 38.3733 163.678 38.22C163.818 37.9267 163.898 37.5867 163.918 37.2C163.945 36.8067 163.958 36.48 163.958 36.22L164.758 36.42C163.952 36.5533 163.298 36.6667 162.798 36.76C162.298 36.8467 161.895 36.9267 161.588 37C161.282 37.0733 161.012 37.1533 160.778 37.24C160.512 37.3467 160.295 37.4633 160.128 37.59C159.968 37.71 159.848 37.8433 159.768 37.99C159.695 38.1367 159.658 38.3 159.658 38.48C159.658 38.7267 159.718 38.94 159.838 39.12C159.965 39.2933 160.142 39.4267 160.368 39.52C160.595 39.6133 160.865 39.66 161.178 39.66ZM170.233 46.3L172.313 40.58L172.353 42.26L167.653 30.7H170.473L173.633 38.88H172.993L176.133 30.7H178.853L172.753 46.3H170.233Z" fill="white"/>
</svg>
